<svg width="22" height="14" viewBox="0 0 22 14" fill="none" xmlns="http://www.w3.org/2000/svg">
<path d="M6.41286 12.7444H0.958537C0.832664 12.7444 0.708003 12.7186 0.591712 12.6686C0.475421 12.6186 0.369748 12.5454 0.280743 12.453C0.191737 12.3606 0.121158 12.2509 0.072989 12.1302C0.0248195 12.0095 4.14176e-08 11.8801 4.14178e-08 11.7494C-3.7091e-05 11.6199 0.024894 11.4916 0.0733372 11.3722C0.12178 11.2528 0.192748 11.1447 0.282066 11.0542C0.371384 10.9637 0.477283 10.8926 0.593453 10.8452C0.709623 10.7978 0.833754 10.775 0.958537 10.7782H6.41286C7.37732 10.7719 8.30029 10.3699 8.98015 9.65976C9.66 8.94964 10.0416 7.98912 10.0415 6.98799C10.0415 5.46759 10.6234 4.00951 11.6591 2.93443C12.6949 1.85934 14.0996 1.25537 15.5643 1.25537H19.9917C20.242 1.26156 20.4799 1.3691 20.6548 1.55502C20.8296 1.74094 20.9275 1.99044 20.9274 2.25025C20.9274 2.3778 20.9032 2.50414 20.8562 2.62198C20.8091 2.73982 20.7402 2.84684 20.6534 2.93703C20.5665 3.02722 20.4633 3.09881 20.3498 3.14762C20.2362 3.19643 20.1146 3.2215 19.9917 3.2215H15.5872C14.6248 3.2215 13.7019 3.61832 13.0213 4.32468C12.3408 5.03103 11.9586 5.98905 11.9586 6.98799C11.9586 7.74392 11.8151 8.49248 11.5364 9.19087C11.2577 9.88926 10.8492 10.5239 10.3343 11.0584C9.81931 11.5929 9.20794 12.0169 8.53511 12.3062C7.86228 12.5955 7.14112 12.7444 6.41286 12.7444Z" fill="#BCBEC0"/>
<path d="M19.9917 12.7444H15.6784C14.9512 12.7444 14.2312 12.5953 13.5596 12.3057C12.8881 12.0161 12.2783 11.5918 11.7651 11.0569C11.252 10.5221 10.8457 9.88732 10.5695 9.18906C10.2932 8.49081 10.1526 7.7428 10.1556 6.98799C10.1496 5.99097 9.76541 5.03656 9.0862 4.33154C8.40699 3.62653 7.48752 3.22771 6.52699 3.2215H1.0726C0.94782 3.22466 0.823689 3.20188 0.707519 3.15448C0.591349 3.10709 0.48552 3.03606 0.396202 2.94556C0.306884 2.85506 0.235916 2.74695 0.187473 2.62755C0.13903 2.50814 0.114099 2.37982 0.114136 2.25025C0.114136 1.98638 0.215124 1.73336 0.394879 1.54678C0.574633 1.3602 0.818391 1.25537 1.0726 1.25537H6.52699C7.98989 1.26161 9.39113 1.86756 10.4256 2.94129C11.46 4.01503 12.0438 5.46951 12.0498 6.98799C12.0498 7.98912 12.4313 8.94964 13.1112 9.65976C13.791 10.3699 14.7139 10.7719 15.6784 10.7782H19.9917C20.2399 10.7782 20.4779 10.8805 20.6533 11.0627C20.8288 11.2448 20.9274 11.4918 20.9274 11.7494C20.9304 11.879 20.9085 12.0078 20.8628 12.1284C20.8172 12.249 20.7488 12.3589 20.6616 12.4516C20.5744 12.5443 20.4702 12.618 20.3551 12.6683C20.2401 12.7185 20.1165 12.7444 19.9917 12.7444Z" fill="#BCBEC0"/>
<path d="M18.303 4.16918V0.307912C18.305 0.256076 18.3196 0.205568 18.3455 0.161159C18.3713 0.11675 18.4075 0.0798706 18.4508 0.0538775C18.494 0.0278844 18.5429 0.0136713 18.5928 0.0125264C18.6428 0.0113816 18.6923 0.0233123 18.7366 0.0472989L21.8631 1.98979C21.9056 2.01753 21.9405 2.05598 21.9648 2.10155C21.989 2.14712 22.0017 2.19828 22.0017 2.25033C22.0017 2.30238 21.989 2.35361 21.9648 2.39918C21.9405 2.44475 21.9056 2.4832 21.8631 2.51094L18.7366 4.42972C18.6923 4.4537 18.6428 4.46571 18.5928 4.46456C18.5429 4.46342 18.494 4.44913 18.4508 4.42314C18.4075 4.39714 18.3713 4.36027 18.3455 4.31586C18.3196 4.27145 18.305 4.22101 18.303 4.16918Z" fill="#BCBEC0"/>
<path d="M18.303 13.692V9.80706C18.305 9.75522 18.3196 9.70479 18.3455 9.66038C18.3713 9.61597 18.4075 9.57909 18.4508 9.55309C18.494 9.5271 18.5429 9.51282 18.5928 9.51167C18.6428 9.51053 18.6923 9.52253 18.7366 9.54652L21.8631 11.489C21.9056 11.5167 21.9405 11.5552 21.9648 11.6008C21.989 11.6463 22.0017 11.6975 22.0017 11.7495C22.0017 11.8016 21.989 11.8528 21.9648 11.8984C21.9405 11.944 21.9056 11.9824 21.8631 12.0102L18.7366 13.9526C18.6923 13.9766 18.6428 13.9886 18.5928 13.9874C18.5429 13.9863 18.494 13.9721 18.4508 13.9461C18.4075 13.9201 18.3713 13.8831 18.3455 13.8387C18.3196 13.7943 18.305 13.7439 18.303 13.692Z" fill="#BCBEC0"/>
</svg>
